<svg width="24" height="12" viewBox="0 0 24 12" fill="none" xmlns="http://www.w3.org/2000/svg">
<path d="M0.275221 5.14883C0.275503 5.14855 0.275738 5.14822 0.276066 5.14794L5.17464 0.272994C5.54162 -0.0922052 6.13519 -0.0908462 6.50048 0.276181C6.86573 0.643162 6.86432 1.23673 6.49734 1.60198L3.20844 4.87495H23.0625C23.5803 4.87495 24 5.29466 24 5.81244C24 6.33021 23.5803 6.74993 23.0625 6.74993H3.20849L6.4973 10.0229C6.86428 10.3881 6.86568 10.9817 6.50044 11.3487C6.13514 11.7158 5.54152 11.717 5.17459 11.3519L0.276018 6.47693C0.275738 6.47665 0.275501 6.47632 0.275173 6.47604C-0.0919933 6.10957 -0.0908222 5.51408 0.275221 5.14883Z" fill="#827E7E"/>
</svg>
