<svg width="88" height="89" viewBox="0 0 88 89" fill="none" xmlns="http://www.w3.org/2000/svg">
<path d="M86.0667 26.3038C85.0571 26.3038 84.2377 25.4844 84.2377 24.4748V9.84287C84.2377 6.81772 81.7759 4.35589 78.7507 4.35589H64.1188C63.1092 4.35589 62.2898 3.5365 62.2898 2.5269C62.2898 1.5173 63.1092 0.697906 64.1188 0.697906H78.7507C83.7914 0.697906 87.8957 4.79851 87.8957 9.84287V24.4748C87.8957 25.4844 87.0763 26.3038 86.0667 26.3038Z" fill="#022655"/>
<path d="M78.7507 88.4896H64.1188C63.1092 88.4896 62.2898 87.6702 62.2898 86.6606C62.2898 85.651 63.1092 84.8316 64.1188 84.8316H78.7507C81.7759 84.8316 84.2377 82.3698 84.2377 79.3446V64.7127C84.2377 63.7031 85.0571 62.8837 86.0667 62.8837C87.0763 62.8837 87.8957 63.7031 87.8957 64.7127V79.3446C87.8957 84.389 83.7914 88.4896 78.7507 88.4896Z" fill="#022655"/>
<path d="M23.8809 88.4896H9.24897C4.20827 88.4896 0.104004 84.389 0.104004 79.3446V64.7127C0.104004 63.7031 0.923393 62.8837 1.933 62.8837C2.9426 62.8837 3.76199 63.7031 3.76199 64.7127V79.3446C3.76199 82.3698 6.22382 84.8316 9.24897 84.8316H23.8809C24.8905 84.8316 25.7099 85.651 25.7099 86.6606C25.7099 87.6702 24.8905 88.4896 23.8809 88.4896Z" fill="#022655"/>
<path d="M1.933 26.3038C0.923393 26.3038 0.104004 25.4844 0.104004 24.4748V9.84287C0.104004 4.79851 4.20827 0.697906 9.24897 0.697906H23.8809C24.8905 0.697906 25.7099 1.5173 25.7099 2.5269C25.7099 3.5365 24.8905 4.35589 23.8809 4.35589H9.24897C6.22382 4.35589 3.76199 6.81772 3.76199 9.84287V24.4748C3.76199 25.4844 2.9426 26.3038 1.933 26.3038Z" fill="#022655"/>
<path d="M64.1189 70.1997H23.881C20.8559 70.1997 18.394 67.7378 18.394 64.7127V53.7387C18.394 52.7291 19.2134 51.9097 20.223 51.9097C21.2326 51.9097 22.052 52.7291 22.052 53.7387V64.7127C22.052 65.7186 22.8714 66.5417 23.881 66.5417H64.1189C65.1285 66.5417 65.9479 65.7186 65.9479 64.7127V53.7387C65.9479 52.7291 66.7673 51.9097 67.7769 51.9097C68.7865 51.9097 69.6059 52.7291 69.6059 53.7387V64.7127C69.6059 67.7378 67.144 70.1997 64.1189 70.1997Z" fill="#022655"/>
<path d="M67.7769 40.9358C66.7673 40.9358 65.9479 40.1164 65.9479 39.1068V24.4748C65.9479 23.4689 65.1285 22.6458 64.1189 22.6458H23.881C22.8714 22.6458 22.052 23.4689 22.052 24.4748V39.1068C22.052 40.1164 21.2326 40.9358 20.223 40.9358C19.2134 40.9358 18.394 40.1164 18.394 39.1068V24.4748C18.394 21.4497 20.8559 18.9878 23.881 18.9878H64.1189C67.144 18.9878 69.6059 21.4497 69.6059 24.4748V39.1068C69.6059 40.1164 68.7865 40.9358 67.7769 40.9358Z" fill="#022655"/>
<path d="M75.0927 55.5677H12.9069C11.8973 55.5677 11.0779 54.7483 11.0779 53.7387C11.0779 52.7291 11.8973 51.9097 12.9069 51.9097H75.0927C76.1023 51.9097 76.9216 52.7291 76.9216 53.7387C76.9216 54.7483 76.1023 55.5677 75.0927 55.5677Z" fill="#022655"/>
</svg>
