<svg width="30" height="30" viewBox="0 0 30 30" fill="none" xmlns="http://www.w3.org/2000/svg">
<mask id="mask0" style="mask-type:alpha" maskUnits="userSpaceOnUse" x="0" y="0" width="30" height="30">
<rect width="29.2161" height="29.2161" rx="14.608" fill="white"/>
</mask>
<g mask="url(#mask0)">
<path d="M9.13002 0H0V9.13002H9.13002V0ZM7.30402 7.30402H1.826V1.826H7.30402V7.30402Z" fill="white"/>
<path d="M5.4781 3.65199H3.6521V5.478H5.4781V3.65199Z" fill="white"/>
<path d="M20.0862 0V9.13002H29.2162V0H20.0862ZM27.3902 7.30402H21.9122V1.826H27.3902V7.30402Z" fill="white"/>
<path d="M25.564 3.65199H23.738V5.478H25.564V3.65199Z" fill="white"/>
<path d="M0 29.2161H9.13002V20.0861H0V29.2161ZM1.826 21.9121H7.30402V27.3901H1.826V21.9121Z" fill="white"/>
<path d="M5.4781 23.7381H3.6521V25.5641H5.4781V23.7381Z" fill="white"/>
<path d="M18.2602 0H14.6082V1.826H18.2602V0Z" fill="white"/>
<path d="M14.6081 7.30402H16.4341V5.47801H18.2601V3.65201H12.7821V1.826H10.9561V3.65201V4.56501V5.47801H14.6081V7.30402Z" fill="white"/>
<path d="M12.7821 7.30402H10.9561V9.13002H12.7821V7.30402Z" fill="white"/>
<path d="M18.2601 9.13002H16.4341V10.956H10.9561V12.782H18.2601V9.13002Z" fill="white"/>
<path d="M1.826 16.434H3.65201V14.608H1.826V10.956H0V18.26H1.826V16.434Z" fill="white"/>
<path d="M5.4781 10.956H3.6521V12.782H5.4781V10.956Z" fill="white"/>
<path d="M10.956 18.26H14.6081V16.434H12.782V14.608H9.13004V10.956H7.30403V14.608H5.47803V18.26H7.30403V16.434H8.21703H9.13004H10.956V18.26Z" fill="white"/>
<path d="M18.2601 14.608H16.4341V18.26H18.2601V14.608Z" fill="white"/>
<path d="M16.4341 20.0861H10.9561V21.9121H14.6081V27.3901H10.9561V29.2161H16.4341V27.3901H20.0861V25.5641H16.4341V20.0861Z" fill="white"/>
<path d="M12.7821 23.7381H10.9561V25.5641H12.7821V23.7381Z" fill="white"/>
<path d="M20.086 20.0861H18.26V23.7381H20.086V20.0861Z" fill="white"/>
<path d="M27.3901 23.7381H21.9121V29.2161H23.7381V25.5641H27.3901V23.7381Z" fill="white"/>
<path d="M29.216 27.3901H25.564V29.2161H29.216V27.3901Z" fill="white"/>
<path d="M29.2161 20.0861H27.3901V21.9121H29.2161V20.0861Z" fill="white"/>
<path d="M21.9122 21.9121H23.7382V16.4341H20.0862V18.2601H21.9122V21.9121Z" fill="white"/>
<path d="M25.5642 12.782H23.7382V10.956H21.9122V12.782H20.0862V14.608H27.3902V12.782H29.2162V10.956H25.5642V12.782Z" fill="white"/>
<path d="M29.216 16.4341H25.564V18.2601H29.216V16.4341Z" fill="white"/>
</g>
</svg>
