<svg width="24" height="24" viewBox="0 0 24 24" fill="none" xmlns="http://www.w3.org/2000/svg">
<path opacity="0.3" d="M12 4.56205L7.76825 9.64018C7.41468 10.0645 6.78412 10.1218 6.35984 9.76822C5.93556 9.41466 5.87824 8.78409 6.2318 8.35982L11.2318 2.35982C11.6316 1.88006 12.3685 1.88006 12.7682 2.35982L17.7682 8.35982C18.1218 8.78409 18.0645 9.41466 17.6402 9.76822C17.2159 10.1218 16.5854 10.0645 16.2318 9.64018L12 4.56205Z" fill="#565656"/>
<path fill-rule="evenodd" clip-rule="evenodd" d="M3.28052 9C2.72823 9 2.28052 9.44772 2.28052 10V18C2.28052 19.6569 3.62367 21 5.28052 21H18.7192C20.3761 21 21.7192 19.6569 21.7192 18V10C21.7192 9.44772 21.2715 9 20.7192 9H3.28052ZM12 12C11.4477 12 11 12.4477 11 13V17C11 17.5523 11.4477 18 12 18C12.5523 18 13 17.5523 13 17V13C13 12.4477 12.5523 12 12 12ZM6.25759 13.361C6.11465 12.8276 6.43124 12.2792 6.9647 12.1363C7.49817 11.9934 8.0465 12.3099 8.18945 12.8434L9.22472 16.7071C9.36766 17.2406 9.05108 17.7889 8.51762 17.9319C7.98415 18.0748 7.43581 17.7582 7.29287 17.2247L6.25759 13.361ZM17.0353 12.1363C16.5018 11.9934 15.9535 12.3099 15.8105 12.8434L14.7752 16.7071C14.6323 17.2406 14.9489 17.7889 15.4823 17.9319C16.0158 18.0748 16.5641 17.7582 16.7071 17.2247L17.7424 13.361C17.8853 12.8276 17.5687 12.2792 17.0353 12.1363Z" fill="#565656"/>
</svg>
