<svg width="103" height="103" viewBox="0 0 103 103" fill="none" xmlns="http://www.w3.org/2000/svg">
<path d="M60.0516 71.8339V75.2546H92.548C93.0016 75.2546 93.4366 75.0744 93.7574 74.7536C94.0781 74.4329 94.2583 73.9979 94.2583 73.5443V58.1513C94.2583 57.6976 94.0781 57.2626 93.7574 56.9419C93.4366 56.6211 93.0016 56.4409 92.548 56.4409H60.0516V59.8616H90.8376V71.8339H60.0516Z" fill="#4D4F52"/>
<path d="M99.3892 88.9372H60.0515V92.3579H99.3892C99.3871 94.1717 98.6657 95.9106 97.3831 97.1932C96.1006 98.4757 94.3617 99.1972 92.5479 99.1992H54.9205C54.4604 99.1994 54.0015 99.1536 53.5505 99.0624L52.8699 102.415C53.5449 102.551 54.2318 102.62 54.9205 102.62H92.5479C95.2686 102.617 97.877 101.535 99.8008 99.6108C101.725 97.687 102.807 95.0786 102.81 92.3579V59.8616H99.3892V88.9372Z" fill="#4D4F52"/>
<path d="M94.6859 32.4963H94.2584V27.3653H95.5411C96.5614 27.3642 97.5395 26.9584 98.261 26.237C98.9824 25.5155 99.3882 24.5374 99.3894 23.5171V5.98617C99.3876 4.39908 98.7563 2.87751 97.6341 1.75527C96.5118 0.633031 94.9903 0.00177681 93.4032 0H61.762V3.42067H93.4032C94.0834 3.42144 94.7355 3.69198 95.2164 4.17294C95.6974 4.6539 95.9679 5.30599 95.9687 5.98617V23.5171C95.9686 23.6304 95.9235 23.7391 95.8433 23.8193C95.7632 23.8995 95.6545 23.9445 95.5411 23.9447H51.9276C51.8142 23.9445 51.7055 23.8995 51.6254 23.8193C51.5452 23.7391 51.5001 23.6304 51.5 23.5171V5.98617C51.5008 5.30599 51.7713 4.6539 52.2523 4.17294C52.7333 3.69198 53.3853 3.42144 54.0655 3.42067H58.3414V0H54.0655C52.4784 0.00177681 50.9569 0.633031 49.8346 1.75527C48.7124 2.87751 48.0811 4.39908 48.0794 5.98617V23.5171C48.0805 24.5374 48.4863 25.5155 49.2077 26.237C49.9292 26.9584 50.9073 27.3642 51.9276 27.3653H53.2104V32.4963H52.7828C50.6289 32.4988 48.5639 33.3555 47.0409 34.8785C45.5179 36.4016 44.6611 38.4665 44.6587 40.6204V41.048H48.0794V40.6204C48.0808 39.3734 48.5767 38.1779 49.4585 37.2961C50.3403 36.4144 51.5358 35.9184 52.7828 35.917H94.6859C95.9329 35.9184 97.1284 36.4144 98.0102 37.2961C98.892 38.1779 99.388 39.3734 99.3894 40.6204V47.8893H56.631V51.31H99.3894V56.441H102.81V40.6204C102.808 38.4665 101.951 36.4016 100.428 34.8785C98.9048 33.3555 96.8398 32.4988 94.6859 32.4963ZM56.631 32.4963V27.3653H90.8377V32.4963H56.631Z" fill="#4D4F52"/>
<path d="M54.9205 6.84131H58.3412V20.524H54.9205V6.84131Z" fill="#4D4F52"/>
<path d="M61.7618 6.84131H65.1825V20.524H61.7618V6.84131Z" fill="#4D4F52"/>
<path d="M68.6033 6.84131H72.0239V20.524H68.6033V6.84131Z" fill="#4D4F52"/>
<path d="M75.4446 6.84131H78.8652V20.524H75.4446V6.84131Z" fill="#4D4F52"/>
<path d="M82.286 6.84131H85.7067V20.524H82.286V6.84131Z" fill="#4D4F52"/>
<path d="M89.1272 6.84131H92.5479V20.524H89.1272V6.84131Z" fill="#4D4F52"/>
<path d="M60.0516 80.3857H70.3136V83.8064H60.0516V80.3857Z" fill="#4D4F52"/>
<path d="M73.7343 80.3857H94.2583V83.8064H73.7343V80.3857Z" fill="#4D4F52"/>
<path d="M23.3138 30.5764L28.4025 33.3595L31.1856 38.4482C31.3328 38.7175 31.5499 38.9422 31.8139 39.0988C32.0779 39.2553 32.3792 39.3379 32.6862 39.3379C32.9931 39.3379 33.2944 39.2553 33.5584 39.0988C33.8225 38.9422 34.0395 38.7175 34.1868 38.4482L36.9698 33.3595L42.0586 30.5764C42.3279 30.4291 42.5526 30.2121 42.7091 29.9481C42.8657 29.6841 42.9483 29.3828 42.9483 29.0758C42.9483 28.7689 42.8657 28.4676 42.7091 28.2036C42.5526 27.9395 42.3279 27.7225 42.0586 27.5752L36.9698 24.7922L34.1868 19.7034C34.0395 19.4341 33.8225 19.2094 33.5584 19.0529C33.2944 18.8963 32.9931 18.8137 32.6862 18.8137C32.3792 18.8137 32.0779 18.8963 31.8139 19.0529C31.5499 19.2094 31.3328 19.4341 31.1856 19.7034L28.4025 24.7922L23.3138 27.5752C23.0445 27.7225 22.8198 27.9395 22.6632 28.2036C22.5067 28.4676 22.4241 28.7689 22.4241 29.0758C22.4241 29.3828 22.5067 29.6841 22.6632 29.9481C22.8198 30.2121 23.0445 30.4291 23.3138 30.5764ZM30.4834 27.553C30.7704 27.396 31.0063 27.1601 31.1633 26.8731L32.6862 24.0886L34.209 26.8731C34.366 27.16 34.6019 27.3959 34.8889 27.5529L37.6734 29.0758L34.8889 30.5987C34.602 30.7556 34.366 30.9916 34.2091 31.2785L32.6862 34.0631L31.1633 31.2786C31.0063 30.9916 30.7704 30.7557 30.4835 30.5987L27.6989 29.0758L30.4834 27.553Z" fill="#4D4F52"/>
<path d="M56.631 61.1445C56.626 56.7234 54.8674 52.4847 51.7412 49.3585C48.615 46.2323 44.3764 44.4738 39.9552 44.4688H39.1C35.2578 44.4766 31.5354 45.8074 28.5591 48.2374C25.5828 50.6674 23.5342 54.0482 22.7578 57.8112L26.1102 58.4916C26.7277 55.501 28.3563 52.8143 30.722 50.8834C33.0878 48.9524 36.0463 47.8952 39.1 47.8894H39.9552C43.4695 47.8934 46.8386 49.2912 49.3236 51.7761C51.8085 54.2611 53.2063 57.6302 53.2103 61.1445V70.1238H42.9483V73.5444H53.2103V76.9651H44.6586V80.3857H53.2103V85.9443C53.2063 89.4586 51.8085 92.8278 49.3236 95.3127C46.8386 97.7977 43.4695 99.1955 39.9552 99.1994H39.1C37.6845 99.201 36.2779 98.9757 34.9337 98.5319L33.8595 101.779C35.5502 102.338 37.3195 102.622 39.1 102.62H39.9552C44.3764 102.615 48.615 100.857 51.7412 97.7303C54.8674 94.6041 56.626 90.3655 56.631 85.9443V61.1445Z" fill="#4D4F52"/>
<path d="M4.94918 19.0101L8.37945 20.8861L10.2554 24.3164C10.4027 24.5857 10.6198 24.8103 10.8838 24.9669C11.1478 25.1234 11.4491 25.206 11.7561 25.206C12.063 25.206 12.3643 25.1234 12.6283 24.9669C12.8923 24.8103 13.1094 24.5857 13.2567 24.3164L15.1327 20.8861L18.563 19.0101C18.8322 18.8628 19.0569 18.6458 19.2135 18.3817C19.37 18.1177 19.4526 17.8164 19.4526 17.5095C19.4526 17.2026 19.37 16.9013 19.2135 16.6373C19.0569 16.3732 18.8322 16.1562 18.563 16.0089L15.1327 14.1329L13.2568 10.7026C13.1095 10.4333 12.8924 10.2086 12.6284 10.0521C12.3644 9.89558 12.0631 9.81299 11.7561 9.81299C11.4492 9.81299 11.1479 9.89558 10.8839 10.0521C10.6199 10.2086 10.4028 10.4333 10.2555 10.7026L8.37953 14.1329L4.94918 16.0088C4.6799 16.1561 4.45521 16.3731 4.29869 16.6372C4.14216 16.9012 4.05957 17.2025 4.05957 17.5094C4.05957 17.8164 4.14216 18.1176 4.29869 18.3817C4.45521 18.6457 4.6799 18.8627 4.94918 19.01V19.0101ZM10.4604 16.8937C10.7473 16.7367 10.9832 16.5008 11.1402 16.2138L11.7559 15.0878L12.3717 16.2138C12.5286 16.5008 12.7646 16.7367 13.0515 16.8937L14.1776 17.5094L13.0515 18.1251C12.7646 18.2821 12.5286 18.518 12.3717 18.805L11.7559 19.931L11.1402 18.8052C10.9832 18.5183 10.7473 18.2823 10.4604 18.1253L9.3343 17.5096L10.4604 16.8937Z" fill="#4D4F52"/>
<path d="M41.2379 82.096C41.2379 78.0368 40.0342 74.0687 37.779 70.6935C35.5238 67.3184 32.3184 64.6877 28.5681 63.1343C24.8179 61.5809 20.6912 61.1745 16.7099 61.9664C12.7287 62.7583 9.07162 64.713 6.20129 67.5834C3.33096 70.4537 1.37624 74.1107 0.584313 78.092C-0.207609 82.0733 0.198834 86.2 1.75225 89.9502C3.30566 93.7005 5.93627 96.9059 9.31143 99.1611C12.6866 101.416 16.6547 102.62 20.7139 102.62C26.1554 102.614 31.3722 100.45 35.2198 96.6019C39.0675 92.7542 41.2318 87.5374 41.2379 82.096ZM37.8173 82.096C37.8207 84.85 37.1549 87.5635 35.8773 90.0031L12.807 66.9326C15.4135 65.5724 18.3268 64.9073 21.2654 65.0015C24.204 65.0956 27.0687 65.9459 29.5829 67.4702C32.097 68.9945 34.1757 71.1413 35.6181 73.7033C37.0605 76.2653 37.8179 79.1559 37.8173 82.096ZM31.5326 95.3336L16.7923 80.5932L14.3736 83.012L28.6209 97.2594C25.3944 98.9431 21.7147 99.5535 18.1173 99.0016C14.52 98.4497 11.1925 96.7644 8.619 94.1909C6.04552 91.6174 4.36027 88.2899 3.80843 84.6926C3.25659 81.0952 3.86694 77.4155 5.55069 74.189L11.2464 79.8847L13.6652 77.466L7.47644 71.2773C8.20063 70.3929 9.0109 69.5827 9.89532 68.8585L33.9515 92.9147C33.2273 93.7991 32.417 94.6094 31.5326 95.3336Z" fill="#4D4F52"/>
</svg>
