<svg width="24" height="19" viewBox="0 0 24 19" fill="none" xmlns="http://www.w3.org/2000/svg">
<path d="M5.80401 11.3888C9.87789 13.9884 14.3407 13.9569 18.4003 11.326C19.107 10.877 19.8231 10.199 20.6056 10.1137C21.5067 10.0194 22.8062 10.1811 23.3279 10.7423C23.8495 11.3035 23.9254 12.5741 23.6503 13.3733C23.3753 14.1725 22.5501 14.9986 21.777 15.5912C16.4274 19.6769 8.09468 19.7577 2.61225 15.8337C0.0749692 14.0378 -0.683844 12.2419 0.644079 10.8725C2.53163 8.89701 4.1773 10.3741 5.80401 11.3888Z" fill="#022655"/>
<path d="M16.214 7.10118C14.7011 9.38646 11.903 9.97012 9.45111 8.52892C8.35493 7.87936 7.57621 6.84417 7.28626 5.65107C6.99632 4.45798 7.21889 3.2047 7.90503 2.16696C8.59116 1.12922 9.68465 0.392023 10.9449 0.117534C12.2052 -0.156954 13.5291 0.0537563 14.6253 0.703311C17.0724 2.15798 17.7222 4.79346 16.214 7.10118Z" fill="#00D6A3"/>
</svg>
