<svg width="40" height="40" viewBox="0 0 40 40" fill="none" xmlns="http://www.w3.org/2000/svg">
<path d="M27.3333 25.3333C27.3333 24.9651 27.0349 24.6666 26.6667 24.6666C26.2985 24.6666 26 24.9651 26 25.3333V32.6666C26 33.0348 26.2985 33.3333 26.6667 33.3333C27.0349 33.3333 27.3333 33.0348 27.3333 32.6666V25.3333Z" fill="#2B4C7D"/>
<path d="M17.3333 36.6667H23.3333C23.7015 36.6667 24 36.3682 24 36C24 35.6319 23.7015 35.3334 23.3333 35.3334H17.3333C16.9651 35.3334 16.6667 35.6319 16.6667 36C16.6667 36.3682 16.9651 36.6667 17.3333 36.6667Z" fill="#2B4C7D"/>
<path d="M29.5533 34.9999C29.8067 34.9999 29.46 35.1599 35.08 31.9133C35.2872 31.7942 35.4151 31.5736 35.4156 31.3346C35.4161 31.0956 35.289 30.8745 35.0823 30.7546C34.8755 30.6347 34.6205 30.6342 34.4133 30.7533L29.22 33.7533C28.9558 33.9029 28.8262 34.2122 28.9046 34.5055C28.983 34.7988 29.2497 35.0021 29.5533 34.9999Z" fill="#2B4C7D"/>
<path d="M28 33.6934C28.1537 33.7824 28.3365 33.8064 28.508 33.7601C28.6795 33.7138 28.8254 33.601 28.9133 33.4467L31.9133 28.2534C32.0974 27.9331 31.987 27.5241 31.6667 27.3401C31.3463 27.156 30.9374 27.2664 30.7533 27.5867L27.7533 32.7801C27.6643 32.9337 27.6403 33.1166 27.6866 33.2881C27.7329 33.4595 27.8457 33.6054 28 33.6934Z" fill="#2B4C7D"/>
<path d="M25 33.7799C25.2387 33.7809 25.4596 33.6542 25.5794 33.4478C25.6991 33.2413 25.6993 32.9866 25.58 32.7799L22.58 27.5866C22.4609 27.3794 22.2403 27.2515 22.0013 27.251C21.7623 27.2505 21.5413 27.3776 21.4213 27.5843C21.3014 27.7911 21.3009 28.0461 21.42 28.2533L24.42 33.4466C24.5396 33.6537 24.7609 33.7809 25 33.7799Z" fill="#2B4C7D"/>
<path d="M24.1134 33.7533L18.92 30.7533C18.7128 30.6342 18.4578 30.6347 18.2511 30.7546C18.0443 30.8745 17.9173 31.0956 17.9177 31.3346C17.9182 31.5736 18.0461 31.7942 18.2534 31.9133C23.8534 35.1466 23.5267 34.9999 23.78 34.9999C24.0836 35.0021 24.3503 34.7988 24.4287 34.5055C24.5071 34.2122 24.3775 33.9029 24.1134 33.7533Z" fill="#2B4C7D"/>
<path d="M39.3333 34H34C33.2636 34 32.6667 34.597 32.6667 35.3333V38.6667H7.33333V35.3333C7.33333 34.597 6.73638 34 6 34H0.666667C0.298477 34 0 34.2985 0 34.6667C0 35.0349 0.298477 35.3333 0.666667 35.3333H6V38.6667C6 39.403 6.59695 40 7.33333 40H32.6667C33.403 40 34 39.403 34 38.6667V35.3333H39.3333C39.7015 35.3333 40 35.0349 40 34.6667C40 34.2985 39.7015 34 39.3333 34Z" fill="#2B4C7D"/>
<path d="M26.6667 36.6667C27.0349 36.6667 27.3333 36.3682 27.3333 36C27.3333 35.6319 27.0349 35.3334 26.6667 35.3334C26.2985 35.3334 26 35.6319 26 36C26 36.3682 26.2985 36.6667 26.6667 36.6667Z" fill="#2B4C7D"/>
<path d="M16 30.6667C16.3682 30.6667 16.6666 30.3682 16.6666 30C16.6666 29.6319 16.3682 29.3334 16 29.3334C15.6318 29.3334 15.3333 29.6319 15.3333 30C15.3333 30.3682 15.6318 30.6667 16 30.6667Z" fill="#2B4C7D"/>
<path d="M37.3334 30.6667C37.7015 30.6667 38 30.3682 38 30C38 29.6319 37.7015 29.3334 37.3334 29.3334C36.9652 29.3334 36.6667 29.6319 36.6667 30C36.6667 30.3682 36.9652 30.6667 37.3334 30.6667Z" fill="#2B4C7D"/>
<path d="M27.3333 18.6666H28.9533C29.1901 18.6652 29.4083 18.5383 29.5267 18.3333L33.6133 11.3333H26C25.6318 11.3333 25.3333 11.0348 25.3333 10.6666C25.3333 10.2984 25.6318 9.99996 26 9.99996H34V6.66663H19.3333V9.99996H22.6667C23.0349 9.99996 23.3333 10.2984 23.3333 10.6666C23.3333 11.0348 23.0349 11.3333 22.6667 11.3333H19.72L23.8067 18.3333C23.925 18.5383 24.1433 18.6652 24.38 18.6666H26V22.6666C26 23.0348 26.2985 23.3333 26.6667 23.3333C27.0349 23.3333 27.3333 23.0348 27.3333 22.6666V18.6666Z" fill="#2B4C7D"/>
<path d="M10.8333 34.44C11.0765 34.7158 11.4971 34.7427 11.7733 34.5C13.8467 32.6533 13.8533 30.0133 11.7733 28.1667C10.2933 26.8333 10.2933 25.1467 11.7733 23.8333C11.9642 23.6796 12.0554 23.4335 12.0106 23.1925C11.9659 22.9515 11.7925 22.7545 11.5592 22.6795C11.3258 22.6045 11.0701 22.6635 10.8933 22.8333C8.82001 24.68 8.81335 27.32 10.8933 29.1667C12.3733 30.5 12.3733 32.1867 10.8933 33.5C10.6175 33.7432 10.5907 34.1637 10.8333 34.44Z" fill="#2B4C7D"/>
<path d="M13.7733 26.5C15.8466 24.6533 15.8533 22.0133 13.7733 20.1667C12.2933 18.8333 12.2933 17.1467 13.7733 15.8333C13.9642 15.6796 14.0553 15.4335 14.0106 15.1925C13.9659 14.9515 13.7925 14.7545 13.5591 14.6795C13.3258 14.6044 13.0701 14.6635 12.8933 14.8333C10.82 16.68 10.8133 19.32 12.8933 21.1667C14.3733 22.5 14.3733 24.1867 12.8933 25.5C12.6855 25.6833 12.6127 25.976 12.7105 26.2353C12.8083 26.4945 13.0562 26.6663 13.3333 26.6667C13.4954 26.6664 13.6518 26.6072 13.7733 26.5Z" fill="#2B4C7D"/>
<path d="M37.3333 5.33333V0.666667C37.3333 0.298477 37.0349 0 36.6667 0H35.3333V2C35.3333 2.36819 35.0349 2.66667 34.6667 2.66667C34.2985 2.66667 34 2.36819 34 2V0H32.6667V2C32.6667 2.36819 32.3682 2.66667 32 2.66667C31.6318 2.66667 31.3333 2.36819 31.3333 2V0H30V2C30 2.36819 29.7015 2.66667 29.3333 2.66667C28.9651 2.66667 28.6667 2.36819 28.6667 2V0H27.3333V2C27.3333 2.36819 27.0349 2.66667 26.6667 2.66667C26.2985 2.66667 26 2.36819 26 2V0H24.6667V2C24.6667 2.36819 24.3682 2.66667 24 2.66667C23.6318 2.66667 23.3333 2.36819 23.3333 2V0H22V2C22 2.36819 21.7015 2.66667 21.3333 2.66667C20.9651 2.66667 20.6667 2.36819 20.6667 2V0H19.3333V2C19.3333 2.36819 19.0349 2.66667 18.6667 2.66667C18.2985 2.66667 18 2.36819 18 2V0H16.6667C16.2985 0 16 0.298477 16 0.666667V5.33333C16 5.70152 16.2985 6 16.6667 6H36.6667C37.0349 6 37.3333 5.70152 37.3333 5.33333Z" fill="#2B4C7D"/>
</svg>
