<svg width="40" height="40" viewBox="0 0 40 40" fill="none" xmlns="http://www.w3.org/2000/svg">
<path d="M38.3333 13.3333C37.4133 13.3333 36.6667 12.5883 36.6667 11.6667V5C36.6667 4.08 35.9183 3.33333 35 3.33333H28.3333C27.4133 3.33333 26.6667 2.58833 26.6667 1.66667C26.6667 0.745 27.4133 0 28.3333 0H35C37.7567 0 40 2.24333 40 5V11.6667C40 12.5883 39.2533 13.3333 38.3333 13.3333Z" fill="#2B4C7D"/>
<path d="M35 40H28.3333C27.4133 40 26.6667 39.255 26.6667 38.3333C26.6667 37.4116 27.4133 36.6666 28.3333 36.6666H35C35.9183 36.6666 36.6667 35.92 36.6667 35V28.3333C36.6667 27.4116 37.4133 26.6666 38.3333 26.6666C39.2533 26.6666 40 27.4116 40 28.3333V35C40 37.7566 37.7567 40 35 40Z" fill="#2B4C7D"/>
<path d="M11.6667 40H5C2.24333 40 0 37.7566 0 35V28.3333C0 27.4116 0.746667 26.6666 1.66667 26.6666C2.58667 26.6666 3.33333 27.4116 3.33333 28.3333V35C3.33333 35.92 4.08167 36.6666 5 36.6666H11.6667C12.5867 36.6666 13.3333 37.4116 13.3333 38.3333C13.3333 39.255 12.5867 40 11.6667 40Z" fill="#2B4C7D"/>
<path d="M1.66667 13.3333C0.746667 13.3333 0 12.5883 0 11.6667V5C0 2.24333 2.24333 0 5 0H11.6667C12.5867 0 13.3333 0.745 13.3333 1.66667C13.3333 2.58833 12.5867 3.33333 11.6667 3.33333H5C4.08167 3.33333 3.33333 4.08 3.33333 5V11.6667C3.33333 12.5883 2.58667 13.3333 1.66667 13.3333Z" fill="#2B4C7D"/>
<path d="M30 18.3334C29.08 18.3334 28.3333 17.5884 28.3333 16.6667V11.6667H11.6667V16.6667C11.6667 17.5884 10.92 18.3334 10 18.3334C9.08001 18.3334 8.33334 17.5884 8.33334 16.6667V11.6667C8.33334 9.82837 9.82834 8.33337 11.6667 8.33337H28.3333C30.1717 8.33337 31.6667 9.82837 31.6667 11.6667V16.6667C31.6667 17.5884 30.92 18.3334 30 18.3334Z" fill="#2B4C7D"/>
<path d="M35 23.3333C35 24.255 34.2533 25 33.3333 25H31.6667V28.3333C31.6667 30.1716 30.1717 31.6666 28.3333 31.6666H11.6667C9.82833 31.6666 8.33333 30.1716 8.33333 28.3333V25H6.66667C5.74667 25 5 24.255 5 23.3333C5 22.4116 5.74667 21.6666 6.66667 21.6666H33.3333C34.2533 21.6666 35 22.4116 35 23.3333Z" fill="#2B4C7D"/>
</svg>
