<svg width="40" height="40" viewBox="0 0 40 40" fill="none" xmlns="http://www.w3.org/2000/svg">
<path d="M12.5 0H0V12.5H12.5V0ZM10 10H2.5V2.5H10V10Z" fill="#2B4C7D"/>
<path d="M7.5 5H5V7.5H7.5V5Z" fill="#2B4C7D"/>
<path d="M27.5 0V12.5H40V0H27.5ZM37.5 10H30V2.5H37.5V10Z" fill="#2B4C7D"/>
<path d="M35 5H32.5V7.5H35V5Z" fill="#2B4C7D"/>
<path d="M0 40H12.5V27.5H0V40ZM2.5 30H10V37.5H2.5V30Z" fill="#2B4C7D"/>
<path d="M7.5 32.5H5V35H7.5V32.5Z" fill="#2B4C7D"/>
<path d="M25 0H20V2.5H25V0Z" fill="#2B4C7D"/>
<path d="M20 10H22.5V7.5H25V5H17.5V2.5H15V5V6.25V7.5H20V10Z" fill="#2B4C7D"/>
<path d="M17.5 10H15V12.5H17.5V10Z" fill="#2B4C7D"/>
<path d="M25 12.5H22.5V15H15V17.5H25V12.5Z" fill="#2B4C7D"/>
<path d="M2.5 22.5H5V20H2.5V15H0V25H2.5V22.5Z" fill="#2B4C7D"/>
<path d="M7.5 15H5V17.5H7.5V15Z" fill="#2B4C7D"/>
<path d="M15 25H20V22.5H17.5V20H12.5V15H10V20H7.5V25H10V22.5H11.25H12.5H15V25Z" fill="#2B4C7D"/>
<path d="M25 20H22.5V25H25V20Z" fill="#2B4C7D"/>
<path d="M22.5 27.5H15V30H20V37.5H15V40H22.5V37.5H27.5V35H22.5V27.5Z" fill="#2B4C7D"/>
<path d="M17.5 32.5H15V35H17.5V32.5Z" fill="#2B4C7D"/>
<path d="M27.5 27.5H25V32.5H27.5V27.5Z" fill="#2B4C7D"/>
<path d="M37.5 32.5H30V40H32.5V35H37.5V32.5Z" fill="#2B4C7D"/>
<path d="M40 37.5H35V40H40V37.5Z" fill="#2B4C7D"/>
<path d="M40 27.5H37.5V30H40V27.5Z" fill="#2B4C7D"/>
<path d="M30 30H32.5V22.5H27.5V25H30V30Z" fill="#2B4C7D"/>
<path d="M35 17.5H32.5V15H30V17.5H27.5V20H37.5V17.5H40V15H35V17.5Z" fill="#2B4C7D"/>
<path d="M40 22.5H35V25H40V22.5Z" fill="#2B4C7D"/>
</svg>
