<svg width="42" height="34" viewBox="0 0 42 34" fill="none" xmlns="http://www.w3.org/2000/svg">
<path d="M2.58219 34C3.60474 34 4.43363 33.1711 4.43363 32.1486V19.1885C4.33587 16.732 0.827574 16.7338 0.730743 19.1885V32.1486C0.730743 33.1711 1.55963 34 2.58219 34Z" fill="#2B4C7D"/>
<path d="M13.691 17.337C10.6284 17.337 8.13669 19.8287 8.13669 22.8914V28.4457C8.44255 35.8159 18.9423 35.8104 19.2453 28.4457V22.8914C19.2453 19.8287 16.7537 17.337 13.691 17.337ZM15.5425 28.4457C15.4404 30.9022 11.9407 30.9005 11.8396 28.4457V22.8914C11.8396 21.8705 12.6701 21.0399 13.691 21.0399H13.6912C14.7121 21.0399 15.5426 21.8705 15.5426 22.8914V28.4457H15.5425Z" fill="#2B4C7D"/>
<path d="M28.5029 17.337C25.4403 17.337 22.9486 19.8287 22.9486 22.8914V28.4457C23.2545 35.8159 33.7542 35.8104 34.0573 28.4457V22.8914C34.0573 19.8287 31.5656 17.337 28.5029 17.337ZM30.3544 28.4457C30.2524 30.9024 26.7524 30.9005 26.6515 28.4457V22.8914C26.6515 21.8705 27.482 21.0399 28.5029 21.0399C29.5238 21.0399 30.3544 21.8705 30.3544 22.8914V28.4457Z" fill="#2B4C7D"/>
<path d="M39.5662 33.822C40.5887 33.822 41.4176 32.9931 41.4176 31.9706V19.0105C41.3198 16.554 37.8115 16.5559 37.7147 19.0105V31.9706C37.7147 32.9931 38.5436 33.822 39.5662 33.822Z" fill="#2B4C7D"/>
<path d="M41.4267 11.0799V5.52558C41.1208 -1.84464 30.6211 -1.83908 30.3181 5.52558V11.0799C30.6241 18.4503 41.1236 18.4446 41.4267 11.0799ZM37.7238 11.0799C37.6218 13.5366 34.122 13.5349 34.0209 11.0799V5.52558C34.0209 4.5047 34.8515 3.67414 35.8724 3.67414C36.8933 3.67414 37.7238 4.5047 37.7238 5.52558V11.0799Z" fill="#2B4C7D"/>
<path d="M16.6631 0.00341797C15.6406 0.00341797 14.8117 0.832309 14.8117 1.85486V14.815C14.9095 17.2714 18.4178 17.2696 18.5146 14.815V1.85486C18.5146 0.832309 17.6857 0.00341797 16.6631 0.00341797Z" fill="#2B4C7D"/>
<path d="M5.55433 0.00415039C2.49167 0.00415039 0 2.49582 0 5.55848V11.1128C0.306043 18.483 10.8054 18.4777 11.1087 11.1128V5.55848C11.1087 2.49564 8.61698 0.00415039 5.55433 0.00415039ZM7.40577 11.1128C7.30375 13.5697 3.80397 13.5676 3.70288 11.1128V5.55848C3.8049 3.10198 7.30468 3.10365 7.40577 5.55848V11.1128Z" fill="#2B4C7D"/>
<path d="M24.0693 0.00341797C23.0467 0.00341797 22.2178 0.832309 22.2178 1.85486V14.815C22.3156 17.2714 25.8239 17.2696 25.9207 14.815V1.85486C25.9207 0.832309 25.0918 0.00341797 24.0693 0.00341797Z" fill="#2B4C7D"/>
</svg>
