<svg width="103" height="103" viewBox="0 0 103 103" fill="none" xmlns="http://www.w3.org/2000/svg">
<path d="M92.9913 46.3434C93.6765 48.265 95.4971 49.6536 97.6521 49.6536C100.39 49.6536 102.617 47.4258 102.617 44.6883C102.617 41.9507 100.39 39.7229 97.6521 39.7229C95.4971 39.7229 93.6765 41.1115 92.9913 43.0331H66.2048C66.2048 41.8944 66.0641 40.7888 65.8208 39.7229H82.756C83.1963 39.7229 83.6167 39.5491 83.9262 39.2379L90.0617 33.1024H92.9913C93.6765 35.024 95.4971 36.4126 97.6521 36.4126C100.39 36.4126 102.617 34.1849 102.617 31.4473C102.617 28.7097 100.39 26.4819 97.6521 26.4819C95.4971 26.4819 93.6765 27.8706 92.9913 29.7922H89.3765C88.9362 29.7922 88.5158 29.966 88.2063 30.2771L82.0708 36.4126H64.6324C63.4706 34.0855 61.731 32.0961 59.5843 30.6561V22.6652L71.7528 18.1021C72.3966 17.8587 72.8253 17.2414 72.8253 16.5512V9.62618C74.7469 8.94096 76.1355 7.12033 76.1355 4.96536C76.1355 2.22779 73.9077 0 71.1702 0C68.4326 0 66.2048 2.22779 66.2048 4.96536C66.2048 7.12033 67.5935 8.94096 69.5151 9.62618V15.4042L59.5843 19.1282V16.2467C61.5059 15.5614 62.8946 13.7408 62.8946 11.5858C62.8946 8.84827 60.6668 6.62048 57.9292 6.62048C55.1916 6.62048 52.9639 8.84827 52.9639 11.5858C52.9639 13.7408 54.3525 15.5614 56.2741 16.2467V29.006C54.7183 28.4532 53.0516 28.137 51.3087 28.137C49.5659 28.137 47.8992 28.4532 46.3434 29.006V9.62618C48.265 8.94096 49.6536 7.12033 49.6536 4.96536C49.6536 2.22779 47.4258 0 44.6883 0C41.9507 0 39.7229 2.22779 39.7229 4.96536C39.7229 7.12033 41.1115 8.94096 43.0331 9.62618V30.6561C41.7819 31.4953 40.668 32.5215 39.7229 33.6916V19.8614C39.7229 19.4228 39.5491 19.0008 39.2379 18.6913L33.1024 12.5557V9.62618C35.024 8.94096 36.4126 7.12033 36.4126 4.96536C36.4126 2.22779 34.1849 0 31.4473 0C28.7097 0 26.4819 2.22779 26.4819 4.96536C26.4819 7.12033 27.8706 8.94096 29.7922 9.62618V13.241C29.7922 13.6796 29.966 14.1016 30.2771 14.4111L36.4126 20.5467V43.0331H22.6636L18.1004 30.8663C17.8587 30.2208 17.2414 29.7922 16.5512 29.7922H9.62618C8.94096 27.8706 7.12033 26.4819 4.96536 26.4819C2.22779 26.4819 0 28.7097 0 31.4473C0 34.1849 2.22779 36.4126 4.96536 36.4126C7.12033 36.4126 8.94096 35.024 9.62618 33.1024H15.4042L19.1282 43.0331H16.2467C15.5614 41.1115 13.7408 39.7229 11.5858 39.7229C8.84827 39.7229 6.62048 41.9507 6.62048 44.6883C6.62048 47.4258 8.84827 49.6536 11.5858 49.6536C13.7408 49.6536 15.5614 48.265 16.2467 46.3434H36.4126V51.3087H34.7575C33.8422 51.3087 33.1024 52.0502 33.1024 52.9639V56.2741H9.62618C8.94096 54.3525 7.12033 52.9639 4.96536 52.9639C2.22779 52.9639 0 55.1916 0 57.9292C0 60.6668 2.22779 62.8946 4.96536 62.8946C7.12033 62.8946 8.94096 61.5059 9.62618 59.5843H33.1024V62.8946H19.8614C19.4212 62.8946 19.0008 63.0684 18.6913 63.3795L12.5557 69.5151H9.62618C8.94096 67.5935 7.12033 66.2048 4.96536 66.2048C2.22779 66.2048 0 68.4326 0 71.1702C0 73.9077 2.22779 76.1355 4.96536 76.1355C7.12033 76.1355 8.94096 74.7469 9.62618 72.8253H13.241C13.6812 72.8253 14.1016 72.6515 14.4111 72.3403L20.5467 66.2048H33.1024V72.8253C33.1024 73.7389 33.8422 74.4804 34.7575 74.4804H43.0331V79.9539L30.8647 84.5171C30.2208 84.7587 29.7922 85.3761 29.7922 86.0663V92.9913C27.8706 93.6765 26.4819 95.4971 26.4819 97.6521C26.4819 100.39 28.7097 102.617 31.4473 102.617C34.1849 102.617 36.4126 100.39 36.4126 97.6521C36.4126 95.4971 35.024 93.6765 33.1024 92.9913V87.2133L43.0331 83.4892V86.3708C41.1115 87.056 39.7229 88.8767 39.7229 91.0316C39.7229 93.7692 41.9507 95.997 44.6883 95.997C47.4258 95.997 49.6536 93.7692 49.6536 91.0316C49.6536 88.8767 48.265 87.056 46.3434 86.3708V74.4804H56.2741V92.9913C54.3525 93.6765 52.9639 95.4971 52.9639 97.6521C52.9639 100.39 55.1916 102.617 57.9292 102.617C60.6668 102.617 62.8946 100.39 62.8946 97.6521C62.8946 95.4971 61.5059 93.6765 59.5843 92.9913V74.4804H62.8946V82.756C62.8946 83.1946 63.0684 83.6167 63.3795 83.9262L69.5151 90.0617V92.9913C67.5935 93.6765 66.2048 95.4971 66.2048 97.6521C66.2048 100.39 68.4326 102.617 71.1702 102.617C73.9077 102.617 76.1355 100.39 76.1355 97.6521C76.1355 95.4971 74.7469 93.6765 72.8253 92.9913V89.3765C72.8253 88.9379 72.6515 88.5158 72.3403 88.2063L66.2048 82.0708V74.4804H67.8599C68.7752 74.4804 69.5151 73.7389 69.5151 72.8253V59.5843H79.9539L84.5171 71.7511C84.7587 72.3966 85.3761 72.8253 86.0663 72.8253H92.9913C93.6765 74.7469 95.4971 76.1355 97.6521 76.1355C100.39 76.1355 102.617 73.9077 102.617 71.1702C102.617 68.4326 100.39 66.2048 97.6521 66.2048C95.4971 66.2048 93.6765 67.5935 92.9913 69.5151H87.2133L83.4892 59.5843H86.3708C87.056 61.5059 88.8767 62.8946 91.0316 62.8946C93.7692 62.8946 95.997 60.6668 95.997 57.9292C95.997 55.1916 93.7692 52.9639 91.0316 52.9639C88.8767 52.9639 87.056 54.3525 86.3708 56.2741H69.5151V52.9639C69.5151 52.0502 68.7752 51.3087 67.8599 51.3087H66.2048V46.3434H92.9913ZM97.6521 43.0331C98.5657 43.0331 99.3072 43.7763 99.3072 44.6883C99.3072 45.6002 98.5657 46.3434 97.6521 46.3434C96.7385 46.3434 95.997 45.6002 95.997 44.6883C95.997 43.7763 96.7385 43.0331 97.6521 43.0331ZM97.6521 29.7922C98.5657 29.7922 99.3072 30.5353 99.3072 31.4473C99.3072 32.3593 98.5657 33.1024 97.6521 33.1024C96.7385 33.1024 95.997 32.3593 95.997 31.4473C95.997 30.5353 96.7385 29.7922 97.6521 29.7922ZM71.1702 3.31024C72.0838 3.31024 72.8253 4.05339 72.8253 4.96536C72.8253 5.87733 72.0838 6.62048 71.1702 6.62048C70.2565 6.62048 69.5151 5.87733 69.5151 4.96536C69.5151 4.05339 70.2565 3.31024 71.1702 3.31024ZM57.9292 9.93072C58.8428 9.93072 59.5843 10.6739 59.5843 11.5858C59.5843 12.4978 58.8428 13.241 57.9292 13.241C57.0156 13.241 56.2741 12.4978 56.2741 11.5858C56.2741 10.6739 57.0156 9.93072 57.9292 9.93072ZM44.6883 3.31024C45.6019 3.31024 46.3434 4.05339 46.3434 4.96536C46.3434 5.87733 45.6019 6.62048 44.6883 6.62048C43.7746 6.62048 43.0331 5.87733 43.0331 4.96536C43.0331 4.05339 43.7746 3.31024 44.6883 3.31024ZM31.4473 3.31024C32.3609 3.31024 33.1024 4.05339 33.1024 4.96536C33.1024 5.87733 32.3609 6.62048 31.4473 6.62048C30.5337 6.62048 29.7922 5.87733 29.7922 4.96536C29.7922 4.05339 30.5337 3.31024 31.4473 3.31024ZM4.96536 33.1024C4.05173 33.1024 3.31024 32.3593 3.31024 31.4473C3.31024 30.5353 4.05173 29.7922 4.96536 29.7922C5.87899 29.7922 6.62048 30.5353 6.62048 31.4473C6.62048 32.3593 5.87899 33.1024 4.96536 33.1024ZM11.5858 46.3434C10.6722 46.3434 9.93072 45.6002 9.93072 44.6883C9.93072 43.7763 10.6722 43.0331 11.5858 43.0331C12.4995 43.0331 13.241 43.7763 13.241 44.6883C13.241 45.6002 12.4995 46.3434 11.5858 46.3434ZM4.96536 59.5843C4.05173 59.5843 3.31024 58.8412 3.31024 57.9292C3.31024 57.0172 4.05173 56.2741 4.96536 56.2741C5.87899 56.2741 6.62048 57.0172 6.62048 57.9292C6.62048 58.8412 5.87899 59.5843 4.96536 59.5843ZM4.96536 72.8253C4.05173 72.8253 3.31024 72.0821 3.31024 71.1702C3.31024 70.2582 4.05173 69.5151 4.96536 69.5151C5.87899 69.5151 6.62048 70.2582 6.62048 71.1702C6.62048 72.0821 5.87899 72.8253 4.96536 72.8253ZM31.4473 99.3072C30.5337 99.3072 29.7922 98.5641 29.7922 97.6521C29.7922 96.7401 30.5337 95.997 31.4473 95.997C32.3609 95.997 33.1024 96.7401 33.1024 97.6521C33.1024 98.5641 32.3609 99.3072 31.4473 99.3072ZM44.6883 92.6867C43.7746 92.6867 43.0331 91.9436 43.0331 91.0316C43.0331 90.1197 43.7746 89.3765 44.6883 89.3765C45.6019 89.3765 46.3434 90.1197 46.3434 91.0316C46.3434 91.9436 45.6019 92.6867 44.6883 92.6867ZM57.9292 99.3072C57.0156 99.3072 56.2741 98.5641 56.2741 97.6521C56.2741 96.7401 57.0156 95.997 57.9292 95.997C58.8428 95.997 59.5843 96.7401 59.5843 97.6521C59.5843 98.5641 58.8428 99.3072 57.9292 99.3072ZM71.1702 99.3072C70.2565 99.3072 69.5151 98.5641 69.5151 97.6521C69.5151 96.7401 70.2565 95.997 71.1702 95.997C72.0838 95.997 72.8253 96.7401 72.8253 97.6521C72.8253 98.5641 72.0838 99.3072 71.1702 99.3072ZM97.6521 69.5151C98.5657 69.5151 99.3072 70.2582 99.3072 71.1702C99.3072 72.0821 98.5657 72.8253 97.6521 72.8253C96.7385 72.8253 95.997 72.0821 95.997 71.1702C95.997 70.2582 96.7385 69.5151 97.6521 69.5151ZM91.0316 56.2741C91.9452 56.2741 92.6867 57.0172 92.6867 57.9292C92.6867 58.8412 91.9452 59.5843 91.0316 59.5843C90.118 59.5843 89.3765 58.8412 89.3765 57.9292C89.3765 57.0172 90.118 56.2741 91.0316 56.2741ZM49.6536 62.8946C49.6536 61.9826 50.3951 61.2395 51.3087 61.2395C52.2224 61.2395 52.9639 61.9826 52.9639 62.8946C52.9639 63.8065 52.2224 64.5497 51.3087 64.5497C50.3951 64.5497 49.6536 63.8065 49.6536 62.8946ZM66.2048 71.1702H52.9639V67.5554C54.8854 66.8702 56.2741 65.0495 56.2741 62.8946C56.2741 60.157 54.0463 57.9292 51.3087 57.9292C48.5712 57.9292 46.3434 60.157 46.3434 62.8946C46.3434 65.0495 47.732 66.8702 49.6536 67.5554V71.1702H36.4126V54.619H66.2048V71.1702ZM56.2741 51.3087H46.3434V43.0331C46.3434 40.2956 48.5712 38.0678 51.3087 38.0678C54.0463 38.0678 56.2741 40.2956 56.2741 43.0331V51.3087ZM59.5843 51.3087V43.0331C59.5843 38.47 55.8719 34.7575 51.3087 34.7575C46.7456 34.7575 43.0331 38.47 43.0331 43.0331V51.3087H39.7229V43.0331C39.7229 36.6444 44.9216 31.4473 51.3087 31.4473C57.6958 31.4473 62.8946 36.6444 62.8946 43.0331V51.3087H59.5843Z" fill="#4D4F52"/>
</svg>
