<svg width="94" height="25" viewBox="0 0 94 25" fill="none" xmlns="http://www.w3.org/2000/svg">
<path d="M7.71145 15.1317C13.1242 18.5856 19.0536 18.5438 24.4474 15.0482C25.3863 14.4517 26.3378 13.5509 27.3775 13.4376C28.5747 13.3123 30.3012 13.5271 30.9944 14.2727C31.6875 15.0184 31.7883 16.7065 31.4228 17.7683C31.0574 18.8302 29.961 19.9278 28.9339 20.7152C21.8261 26.1436 10.7549 26.2509 3.47075 21.0373C0.0996072 18.6512 -0.908584 16.2651 0.85575 14.4457C3.36362 11.821 5.55014 13.7836 7.71145 15.1317Z" fill="#022655"/>
<path d="M21.5425 9.43493C19.5324 12.4712 15.8147 13.2467 12.557 11.3319C11.1006 10.4688 10.0659 9.09345 9.6807 7.50825C9.29547 5.92305 9.59119 4.2579 10.5028 2.87912C11.4144 1.50033 12.8673 0.520857 14.5418 0.156161C16.2162 -0.208536 17.9752 0.0714229 19.4316 0.934449C22.683 2.86719 23.5463 6.36879 21.5425 9.43493Z" fill="#00D6A3"/>
<path d="M38.9906 8.58783H45.6006L45.0776 10.4609C45.65 9.78526 46.3709 9.23569 47.1903 8.85042C48.0097 8.46514 48.9078 8.25341 49.8224 8.22992C52.7335 8.22992 54.3655 10.0195 54.3655 12.8351C54.3604 13.6924 54.2332 14.5452 53.9875 15.3703L51.6686 23.6441H45.0461L47.1696 16.1458C47.2806 15.777 47.3399 15.3959 47.346 15.0124C47.3632 14.8358 47.3385 14.6577 47.2738 14.4912C47.2091 14.3248 47.106 14.174 46.972 14.05C46.838 13.926 46.6764 13.8319 46.4992 13.7744C46.3219 13.717 46.1333 13.6977 45.9471 13.718C44.6365 13.718 43.9371 14.5471 43.4708 16.1756L41.3473 23.6441H34.7373L38.9906 8.58783Z" fill="#022655"/>
<path d="M54.9767 18.1263C54.9767 12.6443 58.6755 8.22997 63.3321 8.22997C64.2537 8.18849 65.1704 8.37855 65.9894 8.78085C66.8083 9.18315 67.5002 9.78338 67.995 10.5206L69.9735 3.51743H76.5898L70.9187 23.6442H64.2709L64.7057 22.0992C63.5099 23.2681 61.8806 23.9505 60.1626 24.0021C57.3396 24.0021 54.9767 21.8486 54.9767 18.1263ZM66.7914 15.5076C66.8142 15.2317 66.776 14.9543 66.6793 14.6931C66.5826 14.432 66.4295 14.1928 66.2297 13.9907C66.0299 13.7887 65.7878 13.6283 65.519 13.5197C65.2501 13.4111 64.9602 13.3568 64.6679 13.3601C62.8658 13.3601 61.5551 14.9826 61.5551 16.7483C61.5314 17.0247 61.5689 17.3027 61.6652 17.5646C61.7615 17.8265 61.9145 18.0665 62.1144 18.2691C62.3143 18.4718 62.5566 18.6328 62.826 18.7417C63.0953 18.8507 63.3857 18.9052 63.6786 18.9018C65.4934 18.9018 66.7914 17.2971 66.7914 15.5076Z" fill="#022655"/>
<path d="M74.3529 19.3968C74.3615 18.5398 74.4886 17.6874 74.731 16.8616L77.0624 8.5878H83.6724L81.5678 16.104C81.4568 16.4729 81.3975 16.8539 81.3914 17.2374C81.3691 17.4164 81.39 17.5978 81.4524 17.7681C81.5148 17.9383 81.6172 18.093 81.7518 18.2204C81.8864 18.3479 82.0498 18.4448 82.2297 18.5039C82.4095 18.563 82.6012 18.5828 82.7902 18.5617C84.1009 18.5617 84.8003 17.7325 85.2666 16.104L87.3901 8.6057H94.0001L89.7467 23.662H83.1368L83.6598 21.7829C83.0898 22.4615 82.3695 23.0135 81.5497 23.4C80.7299 23.7865 79.8305 23.9981 78.915 24.0199C76.0038 24.002 74.3529 22.2065 74.3529 19.3968Z" fill="#022655"/>
</svg>
