<svg width="88" height="89" viewBox="0 0 88 89" fill="none" xmlns="http://www.w3.org/2000/svg">
<path d="M86.0667 26.3038C85.0571 26.3038 84.2377 25.4844 84.2377 24.4748V9.84287C84.2377 6.81772 81.7759 4.35589 78.7507 4.35589H64.1188C63.1092 4.35589 62.2898 3.5365 62.2898 2.5269C62.2898 1.5173 63.1092 0.697906 64.1188 0.697906H78.7507C83.7914 0.697906 87.8957 4.79851 87.8957 9.84287V24.4748C87.8957 25.4844 87.0763 26.3038 86.0667 26.3038Z" fill="white" fill-opacity="0.58"/>
<path d="M78.7507 88.4896H64.1188C63.1092 88.4896 62.2898 87.6702 62.2898 86.6606C62.2898 85.651 63.1092 84.8316 64.1188 84.8316H78.7507C81.7759 84.8316 84.2377 82.3698 84.2377 79.3446V64.7127C84.2377 63.7031 85.0571 62.8837 86.0667 62.8837C87.0763 62.8837 87.8957 63.7031 87.8957 64.7127V79.3446C87.8957 84.389 83.7914 88.4896 78.7507 88.4896Z" fill="white" fill-opacity="0.58"/>
<path d="M23.8809 88.4896H9.24897C4.20827 88.4896 0.104004 84.389 0.104004 79.3446V64.7127C0.104004 63.7031 0.923393 62.8837 1.933 62.8837C2.9426 62.8837 3.76199 63.7031 3.76199 64.7127V79.3446C3.76199 82.3698 6.22382 84.8316 9.24897 84.8316H23.8809C24.8905 84.8316 25.7099 85.651 25.7099 86.6606C25.7099 87.6702 24.8905 88.4896 23.8809 88.4896Z" fill="white" fill-opacity="0.58"/>
<path d="M1.933 26.3038C0.923393 26.3038 0.104004 25.4844 0.104004 24.4748V9.84287C0.104004 4.79851 4.20827 0.697906 9.24897 0.697906H23.8809C24.8905 0.697906 25.7099 1.5173 25.7099 2.5269C25.7099 3.5365 24.8905 4.35589 23.8809 4.35589H9.24897C6.22382 4.35589 3.76199 6.81772 3.76199 9.84287V24.4748C3.76199 25.4844 2.9426 26.3038 1.933 26.3038Z" fill="white" fill-opacity="0.58"/>
</svg>
