<svg width="21" height="26" viewBox="0 0 21 26" fill="none" xmlns="http://www.w3.org/2000/svg">
<path d="M19.3143 4.2702L10.607 0.538497C10.4537 0.472866 10.2887 0.439026 10.1219 0.439026C9.95512 0.439026 9.79008 0.472866 9.63676 0.538497L0.929448 4.2702C0.704615 4.36543 0.512779 4.52472 0.37785 4.72822C0.242921 4.93172 0.170867 5.17043 0.170668 5.41459V7.97081C0.167071 11.0759 0.892797 14.1385 2.28939 16.9118C3.68598 19.6851 5.7144 22.0916 8.21125 23.9375C8.29832 24.0022 8.38913 24.0619 8.47745 24.1279C9.00859 24.5085 9.55342 24.8742 10.1219 25.1989C10.6903 24.8717 11.2352 24.5085 11.7663 24.1279C11.8546 24.0644 11.9442 24.0035 12.0325 23.9375C14.5294 22.0916 16.5578 19.6851 17.9544 16.9118C19.351 14.1385 20.0767 11.0759 20.0731 7.97081V5.41459C20.0729 5.17043 20.0009 4.93172 19.8659 4.72822C19.731 4.52472 19.5392 4.36543 19.3143 4.2702ZM18.2073 7.97081C18.2025 10.5069 17.6643 13.0136 16.6275 15.3281C15.5907 17.6426 14.0785 19.7131 12.1893 21.405C11.9753 21.599 11.7539 21.7781 11.53 21.966C11.3994 22.0717 11.27 22.1799 11.1357 22.2832C10.8073 22.5319 10.4727 22.7807 10.1206 23.0096C9.76862 22.7795 9.43401 22.5344 9.10562 22.2832C8.97128 22.1799 8.84315 22.0717 8.7113 21.966C8.4874 21.7831 8.26598 21.5928 8.05203 21.405C6.16323 19.7128 4.65153 17.6423 3.61516 15.3278C2.57879 13.0133 2.04093 10.5067 2.03652 7.97081V5.82508L10.1219 2.35459L18.2073 5.82508V7.97081Z" fill="#04C4A7"/>
<path d="M5.20855 7.29911C5.09777 7.34831 5.0036 7.42852 4.93738 7.53005C4.87117 7.63157 4.83574 7.75009 4.83538 7.8713V9.15252C4.83042 10.8397 5.18636 12.5083 5.87933 14.0466C6.5723 15.5849 7.58626 16.9571 8.85318 18.0713L8.99001 18.1708C9.25407 18.3634 9.52811 18.542 9.81099 18.7057V5.3835C9.72595 5.38681 9.64198 5.4036 9.56221 5.43326L5.20855 7.29911Z" fill="#04C4A7"/>
</svg>
