<svg width="23" height="23" viewBox="0 0 23 23" fill="none" xmlns="http://www.w3.org/2000/svg">
<path d="M7.33628 0.216095H0.216309V7.33606H7.33628V0.216095ZM5.91228 5.91207H1.6403V1.64009H5.91228V5.91207Z" fill="white"/>
<path d="M4.4882 3.06406H3.06421V4.48805H4.4882V3.06406Z" fill="white"/>
<path d="M15.8801 0.216095V7.33606H23.0001V0.216095H15.8801ZM21.5761 5.91207H17.3041V1.64009H21.5761V5.91207Z" fill="white"/>
<path d="M20.152 3.06406H18.728V4.48805H20.152V3.06406Z" fill="white"/>
<path d="M0.216064 23H7.33603V15.88H0.216064V23ZM1.64006 17.304H5.91204V21.576H1.64006V17.304Z" fill="white"/>
<path d="M4.4882 18.728H3.06421V20.152H4.4882V18.728Z" fill="white"/>
<path d="M14.4561 0.216095H11.6082V1.64009H14.4561V0.216095Z" fill="white"/>
<path d="M11.608 5.91207H13.032V4.48808H14.456V3.06408H10.184V1.64009H8.76001V3.06408V3.77608V4.48808H11.608V5.91207Z" fill="white"/>
<path d="M10.184 5.91206H8.76001V7.33605H10.184V5.91206Z" fill="white"/>
<path d="M14.456 7.33605H13.032V8.76005H8.76001V10.184H14.456V7.33605Z" fill="white"/>
<path d="M1.64006 13.032H3.06405V11.608H1.64006V8.76005H0.216064V14.456H1.64006V13.032Z" fill="white"/>
<path d="M4.4882 8.76005H3.06421V10.184H4.4882V8.76005Z" fill="white"/>
<path d="M8.76002 14.456H11.608V13.032H10.184V11.608H7.33602V8.76005H5.91203V11.608H4.48804V14.456H5.91203V13.032H6.62403H7.33602H8.76002V14.456Z" fill="white"/>
<path d="M14.456 11.608H13.032V14.456H14.456V11.608Z" fill="white"/>
<path d="M13.032 15.88H8.76001V17.304H11.608V21.576H8.76001V23H13.032V21.576H15.88V20.152H13.032V15.88Z" fill="white"/>
<path d="M10.184 18.728H8.76001V20.152H10.184V18.728Z" fill="white"/>
<path d="M15.88 15.88H14.4561V18.728H15.88V15.88Z" fill="white"/>
<path d="M21.5759 18.728H17.304V23H18.7279V20.152H21.5759V18.728Z" fill="white"/>
<path d="M22.9998 21.576H20.1519V23H22.9998V21.576Z" fill="white"/>
<path d="M23.0002 15.88H21.5762V17.304H23.0002V15.88Z" fill="white"/>
<path d="M17.3041 17.304H18.7281V13.032H15.8801V14.456H17.3041V17.304Z" fill="white"/>
<path d="M20.1521 10.184H18.7281V8.76005H17.3041V10.184H15.8801V11.608H21.5761V10.184H23.0001V8.76005H20.1521V10.184Z" fill="white"/>
<path d="M22.9998 13.032H20.1519V14.456H22.9998V13.032Z" fill="white"/>
</svg>
