<svg width="17" height="26" viewBox="0 0 17 26" fill="none" xmlns="http://www.w3.org/2000/svg">
<path d="M16.8839 9.78107C16.7425 9.53463 16.4757 9.38195 16.1862 9.38195H10.6558L11.3836 0.853258C11.414 0.496228 11.1918 0.164783 10.8445 0.0492073C10.4988 -0.0671499 10.1141 0.0629768 9.91483 0.363953L1.11491 13.645C0.95551 13.8854 0.943409 14.1916 1.08366 14.443C1.22391 14.6943 1.49341 14.8507 1.78636 14.8507H7.32227L6.58867 24.1658C6.56017 24.5259 6.78827 24.8581 7.14022 24.9692C7.22147 24.9947 7.30427 25.007 7.38632 25.007C7.65897 25.007 7.92067 24.87 8.06912 24.6331L16.869 10.5708C17.0198 10.3297 17.0257 10.0275 16.8839 9.78107ZM8.43907 21.045L8.98398 14.1294C9.00118 13.9124 8.92463 13.6983 8.77343 13.5385C8.62188 13.3791 8.40897 13.2882 8.18632 13.2882H3.25706L9.52383 3.82986L8.98908 10.0985C8.97073 10.3163 9.04613 10.5314 9.19768 10.6923C9.34923 10.853 9.56248 10.9444 9.78633 10.9444H14.7597L8.43907 21.045Z" fill="#F8DC39"/>
</svg>
