<svg width="41" height="70" viewBox="0 0 41 70" fill="none" xmlns="http://www.w3.org/2000/svg">
<g opacity="0.2">
<path d="M11.2178 49.1858V51.4985H33.1882C33.4948 51.4985 33.789 51.3767 34.0058 51.1598C34.2227 50.943 34.3445 50.6488 34.3445 50.3422V39.9351C34.3445 39.6285 34.2227 39.3343 34.0058 39.1175C33.789 38.9006 33.4948 38.7788 33.1882 38.7788H11.2178V41.0915H32.0318V49.1858H11.2178Z" fill="black"/>
<path d="M37.8139 60.7493H11.2182V63.0619H37.8139C37.8126 64.2882 37.3248 65.4639 36.4577 66.331C35.5906 67.1981 34.4149 67.6859 33.1886 67.6873H7.74921C7.43815 67.6874 7.12785 67.6564 6.82296 67.5948L6.36279 69.8612C6.81915 69.9536 7.2836 70 7.74921 70H33.1886C35.028 69.9979 36.7915 69.2662 38.0922 67.9656C39.3929 66.6649 40.1245 64.9014 40.1266 63.0619V41.0916H37.8139V60.7493Z" fill="black"/>
<path d="M2.80666 60.7493H29.4024V63.0619H2.80666C2.80804 64.2882 3.2958 65.4639 4.16292 66.331C5.03004 67.1981 6.20571 67.6859 7.432 67.6873H32.8714C33.1825 67.6874 33.4928 67.6564 33.7976 67.5948L34.2578 69.8612C33.8015 69.9536 33.337 70 32.8714 70H7.432C5.59257 69.9979 3.82906 69.2662 2.52838 67.9656C1.2277 66.6649 0.496067 64.9014 0.493988 63.0619V41.0916H2.80666V60.7493Z" fill="black"/>
<path d="M34.6339 22.5903H34.3448V19.1212H35.212C35.9018 19.1205 36.5631 18.8461 37.0509 18.3584C37.5387 17.8706 37.813 17.2093 37.8138 16.5195V4.66705C37.8126 3.59404 37.3858 2.56532 36.6271 1.80659C35.8683 1.04786 34.8396 0.621074 33.7666 0.619873H12.3744V2.93254H33.7666C34.2265 2.93307 34.6673 3.11598 34.9925 3.44115C35.3177 3.76632 35.5006 4.20719 35.5011 4.66705V16.5195C35.501 16.5961 35.4706 16.6696 35.4164 16.7238C35.3622 16.778 35.2887 16.8085 35.212 16.8086H5.72546C5.64882 16.8085 5.57533 16.778 5.52113 16.7238C5.46694 16.6696 5.43646 16.5961 5.43638 16.5195V4.66705C5.4369 4.20719 5.61982 3.76632 5.94498 3.44115C6.27015 3.11598 6.71102 2.93307 7.17088 2.93254H10.0617V0.619873H7.17088C6.09787 0.621074 5.06916 1.04786 4.31042 1.80659C3.55169 2.56532 3.12491 3.59404 3.12371 4.66705V16.5195C3.12447 17.2093 3.39883 17.8706 3.88659 18.3584C4.37435 18.8461 5.03567 19.1205 5.72546 19.1212H6.59271V22.5903H6.30363C4.84741 22.5919 3.45131 23.1711 2.42161 24.2008C1.39191 25.2305 0.812692 26.6266 0.811035 28.0828V28.3719H3.12371V28.0828C3.12466 27.2398 3.45999 26.4315 4.05613 25.8354C4.65228 25.2392 5.46055 24.9039 6.30363 24.9029H34.6339C35.4769 24.9039 36.2852 25.2392 36.8814 25.8354C37.4775 26.4315 37.8128 27.2398 37.8138 28.0828V32.9973H8.90539V35.3099H37.8138V38.779H40.1265V28.0828C40.1248 26.6266 39.5456 25.2305 38.5159 24.2008C37.4862 23.1711 36.0901 22.5919 34.6339 22.5903ZM8.90539 22.5903V19.1212H32.0321V22.5903H8.90539Z" fill="black"/>
<path d="M7.74902 5.24512H10.0617V14.4958H7.74902V5.24512Z" fill="black"/>
<path d="M12.374 5.24512H14.6867V14.4958H12.374V5.24512Z" fill="black"/>
<path d="M16.9995 5.24512H19.3122V14.4958H16.9995V5.24512Z" fill="black"/>
<path d="M21.625 5.24512H23.9377V14.4958H21.625V5.24512Z" fill="black"/>
<path d="M26.2505 5.24512H28.5632V14.4958H26.2505V5.24512Z" fill="black"/>
<path d="M30.8755 5.24512H33.1882V14.4958H30.8755V5.24512Z" fill="black"/>
<path d="M11.2178 54.9678H18.1558V57.2804H11.2178V54.9678Z" fill="black"/>
<path d="M20.4688 54.9678H34.3448V57.2804H20.4688V54.9678Z" fill="black"/>
</g>
</svg>
