<svg width="21" height="21" viewBox="0 0 21 21" fill="none" xmlns="http://www.w3.org/2000/svg">
<path d="M19.7704 11.3199H19.3602V8.44867C19.3602 7.31675 18.5654 6.36761 17.5047 6.12839L15.6378 2.89483C15.3642 2.42095 14.9224 2.08194 14.3938 1.94031C14.0206 1.84035 13.6358 1.84769 13.2749 1.95663L11.9174 0.59908C11.1186 -0.199652 9.819 -0.199734 9.02018 0.59908L3.54969 6.06966H2.37901C1.06723 6.06966 0 7.13689 0 8.44867V18.621C0 19.9328 1.06723 21 2.37901 21H7.83433C8.06083 21 8.2445 20.8163 8.2445 20.5898C8.2445 20.3633 8.06083 20.1797 7.83433 20.1797H2.37901C1.51957 20.1797 0.820349 19.4804 0.820349 18.621V8.44867C0.820349 7.58923 1.51957 6.89001 2.37901 6.89001H16.9812C17.8407 6.89001 18.5399 7.58923 18.5399 8.44867V11.3199H15.5046C14.2833 11.3199 13.2896 12.3135 13.2896 13.5348C13.2896 14.7561 14.2833 15.7498 15.5046 15.7498H18.5399V18.621C18.5399 19.4804 17.8407 20.1797 16.9812 20.1797H11.5259C11.2994 20.1797 11.1157 20.3633 11.1157 20.5898C11.1157 20.8163 11.2994 21 11.5259 21H16.9812C18.293 21 19.3602 19.9328 19.3602 18.621V15.7498H19.7704C20.4489 15.7498 21.0009 15.1978 21.0009 14.5192V12.5504C21.0009 11.8719 20.4489 11.3199 19.7704 11.3199ZM14.1815 2.73272C14.4984 2.81763 14.7633 3.02087 14.9274 3.305L16.5235 6.06966H7.68228L13.2495 2.85541C13.5336 2.69142 13.8645 2.64778 14.1815 2.73272ZM9.60029 1.17919C9.83225 0.947195 10.1407 0.819426 10.4688 0.819426C10.7969 0.819426 11.1054 0.947195 11.3373 1.17919L12.4994 2.34125L6.04162 6.06966H4.70987L9.60029 1.17919ZM20.1806 14.5192C20.1806 14.7454 19.9966 14.9294 19.7704 14.9294H15.5046C14.7356 14.9294 14.11 14.3038 14.11 13.5348C14.11 12.7658 14.7356 12.1402 15.5046 12.1402H19.7704C19.9966 12.1402 20.1806 12.3242 20.1806 12.5504V14.5192Z" fill="#022655"/>
</svg>
