<svg width="23" height="20" viewBox="0 0 23 20" fill="none" xmlns="http://www.w3.org/2000/svg">
<path d="M22.7423 14.9805C22.561 14.5265 22.0461 14.3053 21.592 14.4866C21.138 14.6678 20.9168 15.1828 21.0981 15.6368C21.3285 16.2141 21.2529 16.8733 20.8959 17.4002C20.5387 17.9273 19.9668 18.2297 19.3269 18.2297H4.01467C3.31661 18.2297 2.69672 17.8655 2.35639 17.2553C2.01553 16.644 2.03155 15.9238 2.39924 15.3284L10.0553 2.93267C10.4039 2.36824 11.0078 2.03128 11.6708 2.03128C12.3337 2.03128 12.9376 2.36824 13.2862 2.93267L18.9485 12.1004C19.2054 12.5163 19.7509 12.6454 20.1667 12.3883C20.5826 12.1315 20.7116 11.586 20.4547 11.1701L14.7923 2.00237C14.1188 0.911932 12.9519 0.260925 11.6707 0.260925C10.3896 0.260925 9.22264 0.911976 8.54914 2.00237L0.893042 14.3981C0.183255 15.5475 0.15236 16.9379 0.810316 18.1176C1.46774 19.2963 2.66561 20 4.01467 20H19.3269C20.5635 20 21.6695 19.4143 22.3615 18.3932C23.0483 17.3796 23.1906 16.1039 22.7423 14.9805Z" fill="#FA5F1C"/>
<path d="M11.6711 16.5037C12.16 16.5037 12.5563 16.1074 12.5563 15.6185C12.5563 15.1296 12.16 14.7334 11.6711 14.7334H11.6707C11.1818 14.7334 10.7858 15.1296 10.7858 15.6185C10.7858 16.1074 11.1823 16.5037 11.6711 16.5037Z" fill="#FA5F1C"/>
<path d="M12.556 12.5204V6.01446C12.556 5.52558 12.1597 5.1293 11.6708 5.1293C11.1819 5.1293 10.7856 5.52558 10.7856 6.01446V12.5204C10.7856 13.0093 11.1819 13.4056 11.6708 13.4056C12.1597 13.4056 12.556 13.0093 12.556 12.5204Z" fill="#FA5F1C"/>
</svg>
